Coordinates
version=1
nRows=9
nColumns=36
inDegrees=yes

Units are S.I. units (second, meters, Newtons, ...)
If the header above contains a line with 'inDegrees', this indicates whether rotational values are in degrees (yes) or radians (no).

endheader
time	pelvis_tilt	pelvis_list	pelvis_rotation	pelvis_tx	pelvis_ty	pelvis_tz	hip_flexion_r	hip_adduction_r	hip_rotation_r	knee_angle_r	knee_angle_r_beta	ankle_angle_r	subtalar_angle_r	mtp_angle_r	hip_flexion_l	hip_adduction_l	hip_rotation_l	knee_angle_l	knee_angle_l_beta	ankle_angle_l	subtalar_angle_l	mtp_angle_l	lumbar_extension	lumbar_bending	lumbar_rotation	arm_flex_r	arm_add_r	arm_rot_r	elbow_flex_r	pro_sup_r	arm_flex_l	arm_add_l	arm_rot_l	elbow_flex_l	pro_sup_l
      0.00000000	      2.06048105	      2.51046185	      3.15772525	     -0.16242042	      0.91619277	     -0.28799220	     24.29884527	     -2.01947425	     -5.01740935	      3.94823865	      0.06890976	      0.38368206	     -9.13730224	     -4.87747902	    -23.29996081	      2.77061033	      0.46228463	     11.14869745	      0.19458148	     12.77435014	      2.73459309	     -4.87747902	     -7.19817745	     -2.42131773	     -9.70617911	    -12.13460610	     -4.33214938	    -12.37544576	     27.50673425	    111.13624783	     16.19010577	     -8.53314218	      5.31659349	     51.15862576	    105.87668410
      0.01000000	      1.91038650	      1.91884320	      2.88670428	     -0.14637245	      0.91554023	     -0.28573541	     24.54188617	     -1.15196493	     -5.26461244	      5.34557301	      0.09329785	     -1.17084553	     -9.66799028	     -4.90945231	    -23.12614450	      2.00812302	     -0.20647651	     12.79633881	      0.22333824	     11.31567136	      2.34507781	     -4.90945231	     -6.64529698	     -1.66778323	     -9.30092276	    -12.22827699	     -4.46660616	    -12.44159789	     27.10638881	    111.25647069	     15.33695425	     -8.18901230	      5.05330224	     50.70128680	    106.04107382
      0.02000000	      1.78003616	      1.34086678	      2.60063651	     -0.13036289	      0.91504384	     -0.28346698	     24.73563430	     -0.29767922	     -5.25037097	      6.75092781	      0.11782592	     -2.81236777	    -10.49692304	     -4.94131945	    -22.89887906	      1.27005829	     -0.76022093	     14.55926163	      0.25410705	      9.73450927	      1.89678118	     -4.94131945	     -6.14691701	     -0.91439248	     -8.91703111	    -12.24175193	     -4.53451830	    -12.57492419	     26.70538118	    111.34964481	     14.43295169	     -7.75209387	      4.59177418	     50.22060091	    106.16118203
      0.03000000	      1.55881385	      0.78093756	      2.23412011	     -0.11441619	      0.91469171	     -0.28099880	     24.86932849	      0.66879209	     -4.17333263	      7.88617235	      0.13763967	     -5.80172563	    -13.66466254	     -5.07616491	    -22.46863983	      0.63333827	     -1.01722393	     16.45169551	      0.28713625	      7.78884113	      0.79052530	     -5.07616491	     -5.54871187	     -0.19540900	     -8.66825155	    -12.08672582	     -4.57982444	    -12.84320121	     26.14127967	    111.70175936	     13.29314205	     -7.21175906	      3.28706368	     49.85155392	    106.79563397
      0.04000000	      1.59279146	      0.07048194	      1.88405800	     -0.09829749	      0.91501082	     -0.27859123	     24.80823712	      1.66387339	     -4.07301849	      9.41848301	      0.16438354	     -6.55317057	    -14.04483174	     -5.10653121	    -22.07452529	     -0.25619929	     -1.76935570	     18.71041146	      0.32655828	      5.68235586	      0.32486443	     -5.10653121	     -5.25660923	      0.74932548	     -8.20232799	    -12.10550794	     -4.66014804	    -12.92487511	     25.93575495	    111.74046693	     12.40122352	     -6.75599216	      2.90639351	     49.30692143	    106.85957543
      0.05000000	      1.57698597	     -0.64815868	      1.48220637	     -0.08229665	      0.91562431	     -0.27609245	     24.75872006	      2.70258914	     -3.72914861	     10.98045049	      0.19164501	     -7.09346162	    -14.77483903	     -5.13745378	    -21.33627557	     -1.15188468	     -2.53170509	     21.39106485	      0.37334451	      3.15492186	     -0.52261789	     -5.13745378	     -4.96392222	      1.65592129	     -7.66763703	    -12.04663737	     -4.82179900	    -13.08626308	     25.72931329	    111.76291523	     11.43473784	     -6.17916913	      2.24685637	     48.57680565	    106.88716693
      0.06000000	      1.52068001	     -1.37189845	      1.01400888	     -0.06635724	      0.91652666	     -0.27359574	     24.66404579	      3.78635679	     -3.08449059	     12.50959792	      0.21833367	     -7.52334870	    -15.81291364	     -5.17981738	    -20.31913707	     -2.00207243	     -3.10773180	     24.38341236	      0.42557083	      0.11779372	     -1.92063539	     -5.17981738	     -4.61835477	      2.63915233	     -7.12050430	    -11.95832889	     -4.96325951	    -13.30476698	     25.56428452	    111.79395818	     10.43691662	     -5.50403319	      1.29331224	     47.71841999	    106.95729868
      0.07000000	      1.55848297	     -2.02043229	      0.53325172	     -0.05088721	      0.91784817	     -0.27098022	     24.37457810	      4.82278146	     -2.37222308	     13.88908795	      0.24241031	     -7.88175950	    -17.11756278	     -5.25505923	    -19.07911095	     -2.77686637	     -3.50669786	     27.77797661	      0.48481715	     -3.62227533	     -4.11479884	     -5.25505923	     -4.48847827	      3.47157352	     -6.54229877	    -11.74174380	     -5.00549284	    -13.56029456	     25.52128252	    111.86515800	      9.52271734	     -4.82689787	      0.07814159	     46.79687738	    107.22578857
      0.08000000	      1.72439065	     -2.90985292	      0.09269565	     -0.03546739	      0.91953655	     -0.26835965	     23.77215517	      6.09570561	     -1.91000837	     15.05516978	      0.26276228	     -7.44665845	    -17.72726682	     -5.28711122	    -17.70251885	     -4.00119461	     -4.30828044	     31.56086426	      0.55084100	     -6.99375683	     -4.99790613	     -5.28711122	     -4.50889151	      4.60456554	     -5.91546880	    -11.55160361	     -5.19790056	    -13.63902805	     25.54465711	    111.89519047	      8.63215347	     -4.24342711	     -0.50039267	     45.86357098	    107.29292967
